<mxfile host="app.diagrams.net" modified="2023-09-26T12:28:53.814Z" agent="Mozilla/5.0 (X11; Linux x86_64; rv:109.0) Gecko/20100101 Firefox/117.0" etag="168PRfNqbWoH1mGJlBXg" version="21.7.2" type="device">
  <diagram name="Page-1" id="VRmoF2FhRsNCKFj1ZeL5">
    <mxGraphModel dx="988" dy="517" grid="1" gridSize="10" guides="1" tooltips="1" connect="1" arrows="1" fold="1" page="1" pageScale="1" pageWidth="850" pageHeight="1100" math="0" shadow="0">
      <root>
        <mxCell id="0" />
        <mxCell id="1" parent="0" />
        <mxCell id="73AyB8iF5DjKMRg6vyxh-149" value="11" style="text;html=1;align=center;verticalAlign=middle;resizable=0;points=[];autosize=1;strokeColor=none;fillColor=none;" vertex="1" parent="1">
          <mxGeometry x="211" y="779" width="40" height="30" as="geometry" />
        </mxCell>
        <mxCell id="73AyB8iF5DjKMRg6vyxh-1" value="" style="shape=table;startSize=0;container=1;collapsible=0;childLayout=tableLayout;fontSize=16;strokeWidth=1;perimeterSpacing=0;" vertex="1" parent="1">
          <mxGeometry x="160" y="320" width="340" height="40" as="geometry" />
        </mxCell>
        <mxCell id="73AyB8iF5DjKMRg6vyxh-2" value="" style="shape=tableRow;horizontal=0;startSize=0;swimlaneHead=0;swimlaneBody=0;strokeColor=inherit;top=0;left=0;bottom=0;right=0;collapsible=0;dropTarget=0;fillColor=none;points=[[0,0.5],[1,0.5]];portConstraint=eastwest;fontSize=16;" vertex="1" parent="73AyB8iF5DjKMRg6vyxh-1">
          <mxGeometry width="340" height="40" as="geometry" />
        </mxCell>
        <mxCell id="73AyB8iF5DjKMRg6vyxh-3" value="" style="shape=partialRectangle;html=1;whiteSpace=wrap;connectable=0;strokeColor=inherit;overflow=hidden;fillColor=none;top=0;left=0;bottom=0;right=0;pointerEvents=1;fontSize=16;" vertex="1" parent="73AyB8iF5DjKMRg6vyxh-2">
          <mxGeometry width="20" height="40" as="geometry">
            <mxRectangle width="20" height="40" as="alternateBounds" />
          </mxGeometry>
        </mxCell>
        <mxCell id="73AyB8iF5DjKMRg6vyxh-4" value="" style="shape=partialRectangle;html=1;whiteSpace=wrap;connectable=0;strokeColor=inherit;overflow=hidden;fillColor=none;top=0;left=0;bottom=0;right=0;pointerEvents=1;fontSize=16;" vertex="1" parent="73AyB8iF5DjKMRg6vyxh-2">
          <mxGeometry x="20" width="20" height="40" as="geometry">
            <mxRectangle width="20" height="40" as="alternateBounds" />
          </mxGeometry>
        </mxCell>
        <mxCell id="73AyB8iF5DjKMRg6vyxh-5" value="" style="shape=partialRectangle;html=1;whiteSpace=wrap;connectable=0;strokeColor=inherit;overflow=hidden;fillColor=none;top=0;left=0;bottom=0;right=0;pointerEvents=1;fontSize=16;" vertex="1" parent="73AyB8iF5DjKMRg6vyxh-2">
          <mxGeometry x="40" width="20" height="40" as="geometry">
            <mxRectangle width="20" height="40" as="alternateBounds" />
          </mxGeometry>
        </mxCell>
        <mxCell id="73AyB8iF5DjKMRg6vyxh-14" style="shape=partialRectangle;html=1;whiteSpace=wrap;connectable=0;strokeColor=inherit;overflow=hidden;fillColor=none;top=0;left=0;bottom=0;right=0;pointerEvents=1;fontSize=16;" vertex="1" parent="73AyB8iF5DjKMRg6vyxh-2">
          <mxGeometry x="60" width="20" height="40" as="geometry">
            <mxRectangle width="20" height="40" as="alternateBounds" />
          </mxGeometry>
        </mxCell>
        <mxCell id="73AyB8iF5DjKMRg6vyxh-15" style="shape=partialRectangle;html=1;whiteSpace=wrap;connectable=0;strokeColor=inherit;overflow=hidden;fillColor=none;top=0;left=0;bottom=0;right=0;pointerEvents=1;fontSize=16;" vertex="1" parent="73AyB8iF5DjKMRg6vyxh-2">
          <mxGeometry x="80" width="20" height="40" as="geometry">
            <mxRectangle width="20" height="40" as="alternateBounds" />
          </mxGeometry>
        </mxCell>
        <mxCell id="73AyB8iF5DjKMRg6vyxh-16" style="shape=partialRectangle;html=1;whiteSpace=wrap;connectable=0;strokeColor=inherit;overflow=hidden;fillColor=none;top=0;left=0;bottom=0;right=0;pointerEvents=1;fontSize=16;" vertex="1" parent="73AyB8iF5DjKMRg6vyxh-2">
          <mxGeometry x="100" width="20" height="40" as="geometry">
            <mxRectangle width="20" height="40" as="alternateBounds" />
          </mxGeometry>
        </mxCell>
        <mxCell id="73AyB8iF5DjKMRg6vyxh-17" style="shape=partialRectangle;html=1;whiteSpace=wrap;connectable=0;strokeColor=inherit;overflow=hidden;fillColor=none;top=0;left=0;bottom=0;right=0;pointerEvents=1;fontSize=16;" vertex="1" parent="73AyB8iF5DjKMRg6vyxh-2">
          <mxGeometry x="120" width="20" height="40" as="geometry">
            <mxRectangle width="20" height="40" as="alternateBounds" />
          </mxGeometry>
        </mxCell>
        <mxCell id="73AyB8iF5DjKMRg6vyxh-18" style="shape=partialRectangle;html=1;whiteSpace=wrap;connectable=0;strokeColor=inherit;overflow=hidden;fillColor=none;top=0;left=0;bottom=0;right=0;pointerEvents=1;fontSize=16;" vertex="1" parent="73AyB8iF5DjKMRg6vyxh-2">
          <mxGeometry x="140" width="20" height="40" as="geometry">
            <mxRectangle width="20" height="40" as="alternateBounds" />
          </mxGeometry>
        </mxCell>
        <mxCell id="73AyB8iF5DjKMRg6vyxh-19" style="shape=partialRectangle;html=1;whiteSpace=wrap;connectable=0;strokeColor=inherit;overflow=hidden;fillColor=none;top=0;left=0;bottom=0;right=0;pointerEvents=1;fontSize=16;" vertex="1" parent="73AyB8iF5DjKMRg6vyxh-2">
          <mxGeometry x="160" width="20" height="40" as="geometry">
            <mxRectangle width="20" height="40" as="alternateBounds" />
          </mxGeometry>
        </mxCell>
        <mxCell id="73AyB8iF5DjKMRg6vyxh-20" style="shape=partialRectangle;html=1;whiteSpace=wrap;connectable=0;strokeColor=inherit;overflow=hidden;fillColor=none;top=0;left=0;bottom=0;right=0;pointerEvents=1;fontSize=16;" vertex="1" parent="73AyB8iF5DjKMRg6vyxh-2">
          <mxGeometry x="180" width="20" height="40" as="geometry">
            <mxRectangle width="20" height="40" as="alternateBounds" />
          </mxGeometry>
        </mxCell>
        <mxCell id="73AyB8iF5DjKMRg6vyxh-21" style="shape=partialRectangle;html=1;whiteSpace=wrap;connectable=0;strokeColor=inherit;overflow=hidden;fillColor=none;top=0;left=0;bottom=0;right=0;pointerEvents=1;fontSize=16;" vertex="1" parent="73AyB8iF5DjKMRg6vyxh-2">
          <mxGeometry x="200" width="20" height="40" as="geometry">
            <mxRectangle width="20" height="40" as="alternateBounds" />
          </mxGeometry>
        </mxCell>
        <mxCell id="73AyB8iF5DjKMRg6vyxh-22" style="shape=partialRectangle;html=1;whiteSpace=wrap;connectable=0;strokeColor=inherit;overflow=hidden;fillColor=none;top=0;left=0;bottom=0;right=0;pointerEvents=1;fontSize=16;" vertex="1" parent="73AyB8iF5DjKMRg6vyxh-2">
          <mxGeometry x="220" width="20" height="40" as="geometry">
            <mxRectangle width="20" height="40" as="alternateBounds" />
          </mxGeometry>
        </mxCell>
        <mxCell id="73AyB8iF5DjKMRg6vyxh-23" style="shape=partialRectangle;html=1;whiteSpace=wrap;connectable=0;strokeColor=inherit;overflow=hidden;fillColor=none;top=0;left=0;bottom=0;right=0;pointerEvents=1;fontSize=16;" vertex="1" parent="73AyB8iF5DjKMRg6vyxh-2">
          <mxGeometry x="240" width="20" height="40" as="geometry">
            <mxRectangle width="20" height="40" as="alternateBounds" />
          </mxGeometry>
        </mxCell>
        <mxCell id="73AyB8iF5DjKMRg6vyxh-24" style="shape=partialRectangle;html=1;whiteSpace=wrap;connectable=0;strokeColor=inherit;overflow=hidden;fillColor=none;top=0;left=0;bottom=0;right=0;pointerEvents=1;fontSize=16;" vertex="1" parent="73AyB8iF5DjKMRg6vyxh-2">
          <mxGeometry x="260" width="20" height="40" as="geometry">
            <mxRectangle width="20" height="40" as="alternateBounds" />
          </mxGeometry>
        </mxCell>
        <mxCell id="73AyB8iF5DjKMRg6vyxh-25" style="shape=partialRectangle;html=1;whiteSpace=wrap;connectable=0;strokeColor=inherit;overflow=hidden;fillColor=none;top=0;left=0;bottom=0;right=0;pointerEvents=1;fontSize=16;" vertex="1" parent="73AyB8iF5DjKMRg6vyxh-2">
          <mxGeometry x="280" width="20" height="40" as="geometry">
            <mxRectangle width="20" height="40" as="alternateBounds" />
          </mxGeometry>
        </mxCell>
        <mxCell id="73AyB8iF5DjKMRg6vyxh-26" style="shape=partialRectangle;html=1;whiteSpace=wrap;connectable=0;strokeColor=inherit;overflow=hidden;fillColor=none;top=0;left=0;bottom=0;right=0;pointerEvents=1;fontSize=16;" vertex="1" parent="73AyB8iF5DjKMRg6vyxh-2">
          <mxGeometry x="300" width="20" height="40" as="geometry">
            <mxRectangle width="20" height="40" as="alternateBounds" />
          </mxGeometry>
        </mxCell>
        <mxCell id="73AyB8iF5DjKMRg6vyxh-30" style="shape=partialRectangle;html=1;whiteSpace=wrap;connectable=0;strokeColor=inherit;overflow=hidden;fillColor=none;top=0;left=0;bottom=0;right=0;pointerEvents=1;fontSize=16;" vertex="1" parent="73AyB8iF5DjKMRg6vyxh-2">
          <mxGeometry x="320" width="20" height="40" as="geometry">
            <mxRectangle width="20" height="40" as="alternateBounds" />
          </mxGeometry>
        </mxCell>
        <mxCell id="73AyB8iF5DjKMRg6vyxh-27" value="" style="endArrow=classic;html=1;rounded=0;edgeStyle=orthogonalEdgeStyle;elbow=vertical;entryX=0.028;entryY=0.975;entryDx=0;entryDy=0;entryPerimeter=0;curved=1;" edge="1" parent="1" target="73AyB8iF5DjKMRg6vyxh-2">
          <mxGeometry width="50" height="50" relative="1" as="geometry">
            <mxPoint x="260" y="440" as="sourcePoint" />
            <mxPoint x="150" y="490" as="targetPoint" />
          </mxGeometry>
        </mxCell>
        <mxCell id="73AyB8iF5DjKMRg6vyxh-28" value="" style="endArrow=classic;html=1;rounded=0;edgeStyle=orthogonalEdgeStyle;elbow=vertical;curved=1;entryX=0.493;entryY=1.015;entryDx=0;entryDy=0;entryPerimeter=0;" edge="1" parent="1" target="73AyB8iF5DjKMRg6vyxh-2">
          <mxGeometry width="50" height="50" relative="1" as="geometry">
            <mxPoint x="270" y="440" as="sourcePoint" />
            <mxPoint x="340" y="380" as="targetPoint" />
            <Array as="points">
              <mxPoint x="270" y="390" />
              <mxPoint x="328" y="390" />
              <mxPoint x="328" y="361" />
            </Array>
          </mxGeometry>
        </mxCell>
        <mxCell id="73AyB8iF5DjKMRg6vyxh-29" value="" style="endArrow=classic;html=1;rounded=0;edgeStyle=orthogonalEdgeStyle;elbow=vertical;curved=1;" edge="1" parent="1">
          <mxGeometry width="50" height="50" relative="1" as="geometry">
            <mxPoint x="280" y="440" as="sourcePoint" />
            <mxPoint x="490" y="360" as="targetPoint" />
            <Array as="points">
              <mxPoint x="280" y="400" />
              <mxPoint x="490" y="400" />
            </Array>
          </mxGeometry>
        </mxCell>
        <mxCell id="73AyB8iF5DjKMRg6vyxh-31" value="" style="shape=table;startSize=0;container=1;collapsible=0;childLayout=tableLayout;fontSize=16;strokeWidth=1;perimeterSpacing=0;" vertex="1" parent="1">
          <mxGeometry x="160" y="480" width="340" height="40" as="geometry" />
        </mxCell>
        <mxCell id="73AyB8iF5DjKMRg6vyxh-32" value="" style="shape=tableRow;horizontal=0;startSize=0;swimlaneHead=0;swimlaneBody=0;strokeColor=inherit;top=0;left=0;bottom=0;right=0;collapsible=0;dropTarget=0;fillColor=none;points=[[0,0.5],[1,0.5]];portConstraint=eastwest;fontSize=16;" vertex="1" parent="73AyB8iF5DjKMRg6vyxh-31">
          <mxGeometry width="340" height="40" as="geometry" />
        </mxCell>
        <mxCell id="73AyB8iF5DjKMRg6vyxh-33" value="" style="shape=partialRectangle;html=1;whiteSpace=wrap;connectable=0;strokeColor=inherit;overflow=hidden;fillColor=none;top=0;left=0;bottom=0;right=0;pointerEvents=1;fontSize=16;" vertex="1" parent="73AyB8iF5DjKMRg6vyxh-32">
          <mxGeometry width="20" height="40" as="geometry">
            <mxRectangle width="20" height="40" as="alternateBounds" />
          </mxGeometry>
        </mxCell>
        <mxCell id="73AyB8iF5DjKMRg6vyxh-34" value="" style="shape=partialRectangle;html=1;whiteSpace=wrap;connectable=0;strokeColor=inherit;overflow=hidden;fillColor=none;top=0;left=0;bottom=0;right=0;pointerEvents=1;fontSize=16;" vertex="1" parent="73AyB8iF5DjKMRg6vyxh-32">
          <mxGeometry x="20" width="20" height="40" as="geometry">
            <mxRectangle width="20" height="40" as="alternateBounds" />
          </mxGeometry>
        </mxCell>
        <mxCell id="73AyB8iF5DjKMRg6vyxh-35" value="" style="shape=partialRectangle;html=1;whiteSpace=wrap;connectable=0;strokeColor=inherit;overflow=hidden;fillColor=none;top=0;left=0;bottom=0;right=0;pointerEvents=1;fontSize=16;" vertex="1" parent="73AyB8iF5DjKMRg6vyxh-32">
          <mxGeometry x="40" width="20" height="40" as="geometry">
            <mxRectangle width="20" height="40" as="alternateBounds" />
          </mxGeometry>
        </mxCell>
        <mxCell id="73AyB8iF5DjKMRg6vyxh-36" style="shape=partialRectangle;html=1;whiteSpace=wrap;connectable=0;strokeColor=inherit;overflow=hidden;fillColor=none;top=0;left=0;bottom=0;right=0;pointerEvents=1;fontSize=16;" vertex="1" parent="73AyB8iF5DjKMRg6vyxh-32">
          <mxGeometry x="60" width="20" height="40" as="geometry">
            <mxRectangle width="20" height="40" as="alternateBounds" />
          </mxGeometry>
        </mxCell>
        <mxCell id="73AyB8iF5DjKMRg6vyxh-37" style="shape=partialRectangle;html=1;whiteSpace=wrap;connectable=0;strokeColor=inherit;overflow=hidden;fillColor=none;top=0;left=0;bottom=0;right=0;pointerEvents=1;fontSize=16;" vertex="1" parent="73AyB8iF5DjKMRg6vyxh-32">
          <mxGeometry x="80" width="20" height="40" as="geometry">
            <mxRectangle width="20" height="40" as="alternateBounds" />
          </mxGeometry>
        </mxCell>
        <mxCell id="73AyB8iF5DjKMRg6vyxh-38" style="shape=partialRectangle;html=1;whiteSpace=wrap;connectable=0;strokeColor=inherit;overflow=hidden;fillColor=none;top=0;left=0;bottom=0;right=0;pointerEvents=1;fontSize=16;" vertex="1" parent="73AyB8iF5DjKMRg6vyxh-32">
          <mxGeometry x="100" width="20" height="40" as="geometry">
            <mxRectangle width="20" height="40" as="alternateBounds" />
          </mxGeometry>
        </mxCell>
        <mxCell id="73AyB8iF5DjKMRg6vyxh-39" style="shape=partialRectangle;html=1;whiteSpace=wrap;connectable=0;strokeColor=inherit;overflow=hidden;fillColor=none;top=0;left=0;bottom=0;right=0;pointerEvents=1;fontSize=16;" vertex="1" parent="73AyB8iF5DjKMRg6vyxh-32">
          <mxGeometry x="120" width="20" height="40" as="geometry">
            <mxRectangle width="20" height="40" as="alternateBounds" />
          </mxGeometry>
        </mxCell>
        <mxCell id="73AyB8iF5DjKMRg6vyxh-40" style="shape=partialRectangle;html=1;whiteSpace=wrap;connectable=0;strokeColor=inherit;overflow=hidden;fillColor=none;top=0;left=0;bottom=0;right=0;pointerEvents=1;fontSize=16;" vertex="1" parent="73AyB8iF5DjKMRg6vyxh-32">
          <mxGeometry x="140" width="20" height="40" as="geometry">
            <mxRectangle width="20" height="40" as="alternateBounds" />
          </mxGeometry>
        </mxCell>
        <mxCell id="73AyB8iF5DjKMRg6vyxh-41" style="shape=partialRectangle;html=1;whiteSpace=wrap;connectable=0;strokeColor=inherit;overflow=hidden;fillColor=none;top=0;left=0;bottom=0;right=0;pointerEvents=1;fontSize=16;" vertex="1" parent="73AyB8iF5DjKMRg6vyxh-32">
          <mxGeometry x="160" width="20" height="40" as="geometry">
            <mxRectangle width="20" height="40" as="alternateBounds" />
          </mxGeometry>
        </mxCell>
        <mxCell id="73AyB8iF5DjKMRg6vyxh-42" style="shape=partialRectangle;html=1;whiteSpace=wrap;connectable=0;strokeColor=inherit;overflow=hidden;fillColor=none;top=0;left=0;bottom=0;right=0;pointerEvents=1;fontSize=16;" vertex="1" parent="73AyB8iF5DjKMRg6vyxh-32">
          <mxGeometry x="180" width="20" height="40" as="geometry">
            <mxRectangle width="20" height="40" as="alternateBounds" />
          </mxGeometry>
        </mxCell>
        <mxCell id="73AyB8iF5DjKMRg6vyxh-43" style="shape=partialRectangle;html=1;whiteSpace=wrap;connectable=0;strokeColor=inherit;overflow=hidden;fillColor=none;top=0;left=0;bottom=0;right=0;pointerEvents=1;fontSize=16;" vertex="1" parent="73AyB8iF5DjKMRg6vyxh-32">
          <mxGeometry x="200" width="20" height="40" as="geometry">
            <mxRectangle width="20" height="40" as="alternateBounds" />
          </mxGeometry>
        </mxCell>
        <mxCell id="73AyB8iF5DjKMRg6vyxh-44" style="shape=partialRectangle;html=1;whiteSpace=wrap;connectable=0;strokeColor=inherit;overflow=hidden;fillColor=none;top=0;left=0;bottom=0;right=0;pointerEvents=1;fontSize=16;" vertex="1" parent="73AyB8iF5DjKMRg6vyxh-32">
          <mxGeometry x="220" width="20" height="40" as="geometry">
            <mxRectangle width="20" height="40" as="alternateBounds" />
          </mxGeometry>
        </mxCell>
        <mxCell id="73AyB8iF5DjKMRg6vyxh-45" style="shape=partialRectangle;html=1;whiteSpace=wrap;connectable=0;strokeColor=inherit;overflow=hidden;fillColor=none;top=0;left=0;bottom=0;right=0;pointerEvents=1;fontSize=16;" vertex="1" parent="73AyB8iF5DjKMRg6vyxh-32">
          <mxGeometry x="240" width="20" height="40" as="geometry">
            <mxRectangle width="20" height="40" as="alternateBounds" />
          </mxGeometry>
        </mxCell>
        <mxCell id="73AyB8iF5DjKMRg6vyxh-46" style="shape=partialRectangle;html=1;whiteSpace=wrap;connectable=0;strokeColor=inherit;overflow=hidden;fillColor=none;top=0;left=0;bottom=0;right=0;pointerEvents=1;fontSize=16;" vertex="1" parent="73AyB8iF5DjKMRg6vyxh-32">
          <mxGeometry x="260" width="20" height="40" as="geometry">
            <mxRectangle width="20" height="40" as="alternateBounds" />
          </mxGeometry>
        </mxCell>
        <mxCell id="73AyB8iF5DjKMRg6vyxh-47" style="shape=partialRectangle;html=1;whiteSpace=wrap;connectable=0;strokeColor=inherit;overflow=hidden;fillColor=none;top=0;left=0;bottom=0;right=0;pointerEvents=1;fontSize=16;" vertex="1" parent="73AyB8iF5DjKMRg6vyxh-32">
          <mxGeometry x="280" width="20" height="40" as="geometry">
            <mxRectangle width="20" height="40" as="alternateBounds" />
          </mxGeometry>
        </mxCell>
        <mxCell id="73AyB8iF5DjKMRg6vyxh-48" style="shape=partialRectangle;html=1;whiteSpace=wrap;connectable=0;strokeColor=inherit;overflow=hidden;fillColor=none;top=0;left=0;bottom=0;right=0;pointerEvents=1;fontSize=16;" vertex="1" parent="73AyB8iF5DjKMRg6vyxh-32">
          <mxGeometry x="300" width="20" height="40" as="geometry">
            <mxRectangle width="20" height="40" as="alternateBounds" />
          </mxGeometry>
        </mxCell>
        <mxCell id="73AyB8iF5DjKMRg6vyxh-49" style="shape=partialRectangle;html=1;whiteSpace=wrap;connectable=0;strokeColor=inherit;overflow=hidden;fillColor=none;top=0;left=0;bottom=0;right=0;pointerEvents=1;fontSize=16;" vertex="1" parent="73AyB8iF5DjKMRg6vyxh-32">
          <mxGeometry x="320" width="20" height="40" as="geometry">
            <mxRectangle width="20" height="40" as="alternateBounds" />
          </mxGeometry>
        </mxCell>
        <mxCell id="73AyB8iF5DjKMRg6vyxh-50" value="" style="endArrow=classic;html=1;rounded=0;edgeStyle=orthogonalEdgeStyle;elbow=vertical;entryX=0.028;entryY=0.975;entryDx=0;entryDy=0;entryPerimeter=0;curved=1;" edge="1" target="73AyB8iF5DjKMRg6vyxh-32" parent="1">
          <mxGeometry width="50" height="50" relative="1" as="geometry">
            <mxPoint x="260" y="600" as="sourcePoint" />
            <mxPoint x="150" y="650" as="targetPoint" />
            <Array as="points">
              <mxPoint x="261" y="600" />
              <mxPoint x="261" y="590" />
              <mxPoint x="170" y="590" />
            </Array>
          </mxGeometry>
        </mxCell>
        <mxCell id="73AyB8iF5DjKMRg6vyxh-51" value="" style="endArrow=classic;html=1;rounded=0;edgeStyle=orthogonalEdgeStyle;elbow=vertical;curved=1;entryX=0.083;entryY=0.992;entryDx=0;entryDy=0;entryPerimeter=0;" edge="1" target="73AyB8iF5DjKMRg6vyxh-32" parent="1">
          <mxGeometry width="50" height="50" relative="1" as="geometry">
            <mxPoint x="270" y="600" as="sourcePoint" />
            <mxPoint x="340" y="540" as="targetPoint" />
            <Array as="points">
              <mxPoint x="270" y="580" />
              <mxPoint x="188" y="580" />
            </Array>
          </mxGeometry>
        </mxCell>
        <mxCell id="73AyB8iF5DjKMRg6vyxh-53" value="" style="endArrow=classic;html=1;rounded=0;edgeStyle=orthogonalEdgeStyle;elbow=vertical;curved=1;entryX=0.145;entryY=0.98;entryDx=0;entryDy=0;entryPerimeter=0;" edge="1" parent="1" target="73AyB8iF5DjKMRg6vyxh-32">
          <mxGeometry width="50" height="50" relative="1" as="geometry">
            <mxPoint x="280" y="600" as="sourcePoint" />
            <mxPoint x="570" y="550" as="targetPoint" />
            <Array as="points">
              <mxPoint x="280" y="570" />
              <mxPoint x="209" y="570" />
            </Array>
          </mxGeometry>
        </mxCell>
        <mxCell id="73AyB8iF5DjKMRg6vyxh-54" value="" style="endArrow=classic;html=1;rounded=0;edgeStyle=orthogonalEdgeStyle;elbow=vertical;curved=1;entryX=0.258;entryY=1.004;entryDx=0;entryDy=0;entryPerimeter=0;" edge="1" parent="1" target="73AyB8iF5DjKMRg6vyxh-32">
          <mxGeometry width="50" height="50" relative="1" as="geometry">
            <mxPoint x="300" y="600" as="sourcePoint" />
            <mxPoint x="320" y="550" as="targetPoint" />
            <Array as="points">
              <mxPoint x="300" y="550" />
              <mxPoint x="248" y="550" />
            </Array>
          </mxGeometry>
        </mxCell>
        <mxCell id="73AyB8iF5DjKMRg6vyxh-55" value="" style="endArrow=classic;html=1;rounded=0;edgeStyle=orthogonalEdgeStyle;elbow=vertical;curved=1;entryX=0.202;entryY=1.039;entryDx=0;entryDy=0;entryPerimeter=0;" edge="1" parent="1" target="73AyB8iF5DjKMRg6vyxh-32">
          <mxGeometry width="50" height="50" relative="1" as="geometry">
            <mxPoint x="290" y="600" as="sourcePoint" />
            <mxPoint x="240" y="540" as="targetPoint" />
            <Array as="points">
              <mxPoint x="290" y="560" />
              <mxPoint x="229" y="560" />
            </Array>
          </mxGeometry>
        </mxCell>
        <mxCell id="73AyB8iF5DjKMRg6vyxh-56" value="" style="endArrow=classic;html=1;rounded=0;edgeStyle=orthogonalEdgeStyle;elbow=vertical;curved=1;entryX=0.324;entryY=0.956;entryDx=0;entryDy=0;entryPerimeter=0;" edge="1" parent="1" target="73AyB8iF5DjKMRg6vyxh-32">
          <mxGeometry width="50" height="50" relative="1" as="geometry">
            <mxPoint x="310" y="600" as="sourcePoint" />
            <mxPoint x="310" y="550" as="targetPoint" />
            <Array as="points">
              <mxPoint x="310" y="540" />
              <mxPoint x="270" y="540" />
            </Array>
          </mxGeometry>
        </mxCell>
        <mxCell id="73AyB8iF5DjKMRg6vyxh-57" value="" style="shape=table;startSize=0;container=1;collapsible=0;childLayout=tableLayout;fontSize=16;strokeWidth=1;perimeterSpacing=0;swimlaneFillColor=none;fillColor=#004C99;" vertex="1" parent="1">
          <mxGeometry x="160" y="680" width="80" height="40" as="geometry" />
        </mxCell>
        <mxCell id="73AyB8iF5DjKMRg6vyxh-58" value="" style="shape=tableRow;horizontal=0;startSize=0;swimlaneHead=0;swimlaneBody=0;strokeColor=inherit;top=0;left=0;bottom=0;right=0;collapsible=0;dropTarget=0;fillColor=none;points=[[0,0.5],[1,0.5]];portConstraint=eastwest;fontSize=16;" vertex="1" parent="73AyB8iF5DjKMRg6vyxh-57">
          <mxGeometry width="80" height="40" as="geometry" />
        </mxCell>
        <mxCell id="73AyB8iF5DjKMRg6vyxh-59" value="" style="shape=partialRectangle;html=1;whiteSpace=wrap;connectable=0;strokeColor=inherit;overflow=hidden;fillColor=none;top=0;left=0;bottom=0;right=0;pointerEvents=1;fontSize=16;" vertex="1" parent="73AyB8iF5DjKMRg6vyxh-58">
          <mxGeometry width="20" height="40" as="geometry">
            <mxRectangle width="20" height="40" as="alternateBounds" />
          </mxGeometry>
        </mxCell>
        <mxCell id="73AyB8iF5DjKMRg6vyxh-60" value="" style="shape=partialRectangle;html=1;whiteSpace=wrap;connectable=0;strokeColor=inherit;overflow=hidden;fillColor=none;top=0;left=0;bottom=0;right=0;pointerEvents=1;fontSize=16;" vertex="1" parent="73AyB8iF5DjKMRg6vyxh-58">
          <mxGeometry x="20" width="20" height="40" as="geometry">
            <mxRectangle width="20" height="40" as="alternateBounds" />
          </mxGeometry>
        </mxCell>
        <mxCell id="73AyB8iF5DjKMRg6vyxh-61" value="" style="shape=partialRectangle;html=1;whiteSpace=wrap;connectable=0;strokeColor=inherit;overflow=hidden;fillColor=none;top=0;left=0;bottom=0;right=0;pointerEvents=1;fontSize=16;" vertex="1" parent="73AyB8iF5DjKMRg6vyxh-58">
          <mxGeometry x="40" width="20" height="40" as="geometry">
            <mxRectangle width="20" height="40" as="alternateBounds" />
          </mxGeometry>
        </mxCell>
        <mxCell id="73AyB8iF5DjKMRg6vyxh-62" style="shape=partialRectangle;html=1;whiteSpace=wrap;connectable=0;strokeColor=inherit;overflow=hidden;fillColor=none;top=0;left=0;bottom=0;right=0;pointerEvents=1;fontSize=16;" vertex="1" parent="73AyB8iF5DjKMRg6vyxh-58">
          <mxGeometry x="60" width="20" height="40" as="geometry">
            <mxRectangle width="20" height="40" as="alternateBounds" />
          </mxGeometry>
        </mxCell>
        <mxCell id="73AyB8iF5DjKMRg6vyxh-76" value="" style="shape=table;startSize=0;container=1;collapsible=0;childLayout=tableLayout;fontSize=16;strokeWidth=1;perimeterSpacing=0;fillColor=#994C00;" vertex="1" parent="1">
          <mxGeometry x="240" y="680" width="80" height="40" as="geometry" />
        </mxCell>
        <mxCell id="73AyB8iF5DjKMRg6vyxh-77" value="" style="shape=tableRow;horizontal=0;startSize=0;swimlaneHead=0;swimlaneBody=0;strokeColor=inherit;top=0;left=0;bottom=0;right=0;collapsible=0;dropTarget=0;fillColor=none;points=[[0,0.5],[1,0.5]];portConstraint=eastwest;fontSize=16;" vertex="1" parent="73AyB8iF5DjKMRg6vyxh-76">
          <mxGeometry width="80" height="40" as="geometry" />
        </mxCell>
        <mxCell id="73AyB8iF5DjKMRg6vyxh-78" value="" style="shape=partialRectangle;html=1;whiteSpace=wrap;connectable=0;strokeColor=inherit;overflow=hidden;fillColor=none;top=0;left=0;bottom=0;right=0;pointerEvents=1;fontSize=16;" vertex="1" parent="73AyB8iF5DjKMRg6vyxh-77">
          <mxGeometry width="20" height="40" as="geometry">
            <mxRectangle width="20" height="40" as="alternateBounds" />
          </mxGeometry>
        </mxCell>
        <mxCell id="73AyB8iF5DjKMRg6vyxh-79" value="" style="shape=partialRectangle;html=1;whiteSpace=wrap;connectable=0;strokeColor=inherit;overflow=hidden;fillColor=none;top=0;left=0;bottom=0;right=0;pointerEvents=1;fontSize=16;" vertex="1" parent="73AyB8iF5DjKMRg6vyxh-77">
          <mxGeometry x="20" width="20" height="40" as="geometry">
            <mxRectangle width="20" height="40" as="alternateBounds" />
          </mxGeometry>
        </mxCell>
        <mxCell id="73AyB8iF5DjKMRg6vyxh-80" value="" style="shape=partialRectangle;html=1;whiteSpace=wrap;connectable=0;strokeColor=inherit;overflow=hidden;fillColor=none;top=0;left=0;bottom=0;right=0;pointerEvents=1;fontSize=16;" vertex="1" parent="73AyB8iF5DjKMRg6vyxh-77">
          <mxGeometry x="40" width="20" height="40" as="geometry">
            <mxRectangle width="20" height="40" as="alternateBounds" />
          </mxGeometry>
        </mxCell>
        <mxCell id="73AyB8iF5DjKMRg6vyxh-81" style="shape=partialRectangle;html=1;whiteSpace=wrap;connectable=0;strokeColor=inherit;overflow=hidden;fillColor=none;top=0;left=0;bottom=0;right=0;pointerEvents=1;fontSize=16;" vertex="1" parent="73AyB8iF5DjKMRg6vyxh-77">
          <mxGeometry x="60" width="20" height="40" as="geometry">
            <mxRectangle width="20" height="40" as="alternateBounds" />
          </mxGeometry>
        </mxCell>
        <mxCell id="73AyB8iF5DjKMRg6vyxh-86" value="" style="shape=table;startSize=0;container=1;collapsible=0;childLayout=tableLayout;fontSize=16;strokeWidth=1;perimeterSpacing=0;fillColor=#009900;" vertex="1" parent="1">
          <mxGeometry x="320" y="680" width="80" height="40" as="geometry" />
        </mxCell>
        <mxCell id="73AyB8iF5DjKMRg6vyxh-87" value="" style="shape=tableRow;horizontal=0;startSize=0;swimlaneHead=0;swimlaneBody=0;strokeColor=inherit;top=0;left=0;bottom=0;right=0;collapsible=0;dropTarget=0;fillColor=none;points=[[0,0.5],[1,0.5]];portConstraint=eastwest;fontSize=16;" vertex="1" parent="73AyB8iF5DjKMRg6vyxh-86">
          <mxGeometry width="80" height="40" as="geometry" />
        </mxCell>
        <mxCell id="73AyB8iF5DjKMRg6vyxh-88" value="" style="shape=partialRectangle;html=1;whiteSpace=wrap;connectable=0;strokeColor=inherit;overflow=hidden;fillColor=none;top=0;left=0;bottom=0;right=0;pointerEvents=1;fontSize=16;" vertex="1" parent="73AyB8iF5DjKMRg6vyxh-87">
          <mxGeometry width="20" height="40" as="geometry">
            <mxRectangle width="20" height="40" as="alternateBounds" />
          </mxGeometry>
        </mxCell>
        <mxCell id="73AyB8iF5DjKMRg6vyxh-89" value="" style="shape=partialRectangle;html=1;whiteSpace=wrap;connectable=0;strokeColor=inherit;overflow=hidden;fillColor=none;top=0;left=0;bottom=0;right=0;pointerEvents=1;fontSize=16;" vertex="1" parent="73AyB8iF5DjKMRg6vyxh-87">
          <mxGeometry x="20" width="20" height="40" as="geometry">
            <mxRectangle width="20" height="40" as="alternateBounds" />
          </mxGeometry>
        </mxCell>
        <mxCell id="73AyB8iF5DjKMRg6vyxh-90" value="" style="shape=partialRectangle;html=1;whiteSpace=wrap;connectable=0;strokeColor=inherit;overflow=hidden;fillColor=none;top=0;left=0;bottom=0;right=0;pointerEvents=1;fontSize=16;" vertex="1" parent="73AyB8iF5DjKMRg6vyxh-87">
          <mxGeometry x="40" width="20" height="40" as="geometry">
            <mxRectangle width="20" height="40" as="alternateBounds" />
          </mxGeometry>
        </mxCell>
        <mxCell id="73AyB8iF5DjKMRg6vyxh-91" style="shape=partialRectangle;html=1;whiteSpace=wrap;connectable=0;strokeColor=inherit;overflow=hidden;fillColor=none;top=0;left=0;bottom=0;right=0;pointerEvents=1;fontSize=16;" vertex="1" parent="73AyB8iF5DjKMRg6vyxh-87">
          <mxGeometry x="60" width="20" height="40" as="geometry">
            <mxRectangle width="20" height="40" as="alternateBounds" />
          </mxGeometry>
        </mxCell>
        <mxCell id="73AyB8iF5DjKMRg6vyxh-96" value="" style="shape=table;startSize=0;container=1;collapsible=0;childLayout=tableLayout;fontSize=16;strokeWidth=1;perimeterSpacing=0;fillColor=#FF99CC;" vertex="1" parent="1">
          <mxGeometry x="400" y="680" width="80" height="40" as="geometry" />
        </mxCell>
        <mxCell id="73AyB8iF5DjKMRg6vyxh-97" value="" style="shape=tableRow;horizontal=0;startSize=0;swimlaneHead=0;swimlaneBody=0;strokeColor=inherit;top=0;left=0;bottom=0;right=0;collapsible=0;dropTarget=0;fillColor=none;points=[[0,0.5],[1,0.5]];portConstraint=eastwest;fontSize=16;" vertex="1" parent="73AyB8iF5DjKMRg6vyxh-96">
          <mxGeometry width="80" height="40" as="geometry" />
        </mxCell>
        <mxCell id="73AyB8iF5DjKMRg6vyxh-98" value="" style="shape=partialRectangle;html=1;whiteSpace=wrap;connectable=0;strokeColor=inherit;overflow=hidden;fillColor=none;top=0;left=0;bottom=0;right=0;pointerEvents=1;fontSize=16;" vertex="1" parent="73AyB8iF5DjKMRg6vyxh-97">
          <mxGeometry width="20" height="40" as="geometry">
            <mxRectangle width="20" height="40" as="alternateBounds" />
          </mxGeometry>
        </mxCell>
        <mxCell id="73AyB8iF5DjKMRg6vyxh-99" value="" style="shape=partialRectangle;html=1;whiteSpace=wrap;connectable=0;strokeColor=inherit;overflow=hidden;fillColor=none;top=0;left=0;bottom=0;right=0;pointerEvents=1;fontSize=16;" vertex="1" parent="73AyB8iF5DjKMRg6vyxh-97">
          <mxGeometry x="20" width="20" height="40" as="geometry">
            <mxRectangle width="20" height="40" as="alternateBounds" />
          </mxGeometry>
        </mxCell>
        <mxCell id="73AyB8iF5DjKMRg6vyxh-100" value="" style="shape=partialRectangle;html=1;whiteSpace=wrap;connectable=0;strokeColor=inherit;overflow=hidden;fillColor=none;top=0;left=0;bottom=0;right=0;pointerEvents=1;fontSize=16;" vertex="1" parent="73AyB8iF5DjKMRg6vyxh-97">
          <mxGeometry x="40" width="20" height="40" as="geometry">
            <mxRectangle width="20" height="40" as="alternateBounds" />
          </mxGeometry>
        </mxCell>
        <mxCell id="73AyB8iF5DjKMRg6vyxh-102" style="shape=partialRectangle;html=1;whiteSpace=wrap;connectable=0;strokeColor=inherit;overflow=hidden;fillColor=none;top=0;left=0;bottom=0;right=0;pointerEvents=1;fontSize=16;" vertex="1" parent="73AyB8iF5DjKMRg6vyxh-97">
          <mxGeometry x="60" width="20" height="40" as="geometry">
            <mxRectangle width="20" height="40" as="alternateBounds" />
          </mxGeometry>
        </mxCell>
        <mxCell id="73AyB8iF5DjKMRg6vyxh-106" value="" style="endArrow=classic;html=1;rounded=0;entryX=0.108;entryY=0.956;entryDx=0;entryDy=0;entryPerimeter=0;" edge="1" parent="1">
          <mxGeometry width="50" height="50" relative="1" as="geometry">
            <mxPoint x="331" y="781.76" as="sourcePoint" />
            <mxPoint x="330.6399999999999" y="720" as="targetPoint" />
          </mxGeometry>
        </mxCell>
        <mxCell id="73AyB8iF5DjKMRg6vyxh-107" value="" style="shape=table;startSize=0;container=1;collapsible=0;childLayout=tableLayout;fontSize=16;strokeWidth=1;perimeterSpacing=0;swimlaneFillColor=none;fillColor=#004C99;" vertex="1" parent="1">
          <mxGeometry x="560" y="680" width="80" height="40" as="geometry" />
        </mxCell>
        <mxCell id="73AyB8iF5DjKMRg6vyxh-108" value="" style="shape=tableRow;horizontal=0;startSize=0;swimlaneHead=0;swimlaneBody=0;strokeColor=inherit;top=0;left=0;bottom=0;right=0;collapsible=0;dropTarget=0;fillColor=none;points=[[0,0.5],[1,0.5]];portConstraint=eastwest;fontSize=16;" vertex="1" parent="73AyB8iF5DjKMRg6vyxh-107">
          <mxGeometry width="80" height="40" as="geometry" />
        </mxCell>
        <mxCell id="73AyB8iF5DjKMRg6vyxh-109" value="" style="shape=partialRectangle;html=1;whiteSpace=wrap;connectable=0;strokeColor=inherit;overflow=hidden;fillColor=none;top=0;left=0;bottom=0;right=0;pointerEvents=1;fontSize=16;" vertex="1" parent="73AyB8iF5DjKMRg6vyxh-108">
          <mxGeometry width="20" height="40" as="geometry">
            <mxRectangle width="20" height="40" as="alternateBounds" />
          </mxGeometry>
        </mxCell>
        <mxCell id="73AyB8iF5DjKMRg6vyxh-110" value="" style="shape=partialRectangle;html=1;whiteSpace=wrap;connectable=0;strokeColor=inherit;overflow=hidden;fillColor=none;top=0;left=0;bottom=0;right=0;pointerEvents=1;fontSize=16;" vertex="1" parent="73AyB8iF5DjKMRg6vyxh-108">
          <mxGeometry x="20" width="20" height="40" as="geometry">
            <mxRectangle width="20" height="40" as="alternateBounds" />
          </mxGeometry>
        </mxCell>
        <mxCell id="73AyB8iF5DjKMRg6vyxh-111" value="" style="shape=partialRectangle;html=1;whiteSpace=wrap;connectable=0;strokeColor=inherit;overflow=hidden;fillColor=none;top=0;left=0;bottom=0;right=0;pointerEvents=1;fontSize=16;" vertex="1" parent="73AyB8iF5DjKMRg6vyxh-108">
          <mxGeometry x="40" width="20" height="40" as="geometry">
            <mxRectangle width="20" height="40" as="alternateBounds" />
          </mxGeometry>
        </mxCell>
        <mxCell id="73AyB8iF5DjKMRg6vyxh-112" style="shape=partialRectangle;html=1;whiteSpace=wrap;connectable=0;strokeColor=inherit;overflow=hidden;fillColor=none;top=0;left=0;bottom=0;right=0;pointerEvents=1;fontSize=16;" vertex="1" parent="73AyB8iF5DjKMRg6vyxh-108">
          <mxGeometry x="60" width="20" height="40" as="geometry">
            <mxRectangle width="20" height="40" as="alternateBounds" />
          </mxGeometry>
        </mxCell>
        <mxCell id="73AyB8iF5DjKMRg6vyxh-113" value="" style="shape=table;startSize=0;container=1;collapsible=0;childLayout=tableLayout;fontSize=16;strokeWidth=1;perimeterSpacing=0;fillColor=#994C00;" vertex="1" parent="1">
          <mxGeometry x="480" y="680" width="80" height="40" as="geometry" />
        </mxCell>
        <mxCell id="73AyB8iF5DjKMRg6vyxh-114" value="" style="shape=tableRow;horizontal=0;startSize=0;swimlaneHead=0;swimlaneBody=0;strokeColor=inherit;top=0;left=0;bottom=0;right=0;collapsible=0;dropTarget=0;fillColor=none;points=[[0,0.5],[1,0.5]];portConstraint=eastwest;fontSize=16;" vertex="1" parent="73AyB8iF5DjKMRg6vyxh-113">
          <mxGeometry width="80" height="40" as="geometry" />
        </mxCell>
        <mxCell id="73AyB8iF5DjKMRg6vyxh-115" value="" style="shape=partialRectangle;html=1;whiteSpace=wrap;connectable=0;strokeColor=inherit;overflow=hidden;fillColor=none;top=0;left=0;bottom=0;right=0;pointerEvents=1;fontSize=16;" vertex="1" parent="73AyB8iF5DjKMRg6vyxh-114">
          <mxGeometry width="20" height="40" as="geometry">
            <mxRectangle width="20" height="40" as="alternateBounds" />
          </mxGeometry>
        </mxCell>
        <mxCell id="73AyB8iF5DjKMRg6vyxh-116" value="" style="shape=partialRectangle;html=1;whiteSpace=wrap;connectable=0;strokeColor=inherit;overflow=hidden;fillColor=none;top=0;left=0;bottom=0;right=0;pointerEvents=1;fontSize=16;" vertex="1" parent="73AyB8iF5DjKMRg6vyxh-114">
          <mxGeometry x="20" width="20" height="40" as="geometry">
            <mxRectangle width="20" height="40" as="alternateBounds" />
          </mxGeometry>
        </mxCell>
        <mxCell id="73AyB8iF5DjKMRg6vyxh-117" value="" style="shape=partialRectangle;html=1;whiteSpace=wrap;connectable=0;strokeColor=inherit;overflow=hidden;fillColor=none;top=0;left=0;bottom=0;right=0;pointerEvents=1;fontSize=16;" vertex="1" parent="73AyB8iF5DjKMRg6vyxh-114">
          <mxGeometry x="40" width="20" height="40" as="geometry">
            <mxRectangle width="20" height="40" as="alternateBounds" />
          </mxGeometry>
        </mxCell>
        <mxCell id="73AyB8iF5DjKMRg6vyxh-118" style="shape=partialRectangle;html=1;whiteSpace=wrap;connectable=0;strokeColor=inherit;overflow=hidden;fillColor=none;top=0;left=0;bottom=0;right=0;pointerEvents=1;fontSize=16;" vertex="1" parent="73AyB8iF5DjKMRg6vyxh-114">
          <mxGeometry x="60" width="20" height="40" as="geometry">
            <mxRectangle width="20" height="40" as="alternateBounds" />
          </mxGeometry>
        </mxCell>
        <mxCell id="73AyB8iF5DjKMRg6vyxh-125" value="" style="shape=table;startSize=0;container=1;collapsible=0;childLayout=tableLayout;fontSize=16;strokeWidth=1;perimeterSpacing=0;fillColor=#FF99CC;" vertex="1" parent="1">
          <mxGeometry x="640" y="680" width="80" height="40" as="geometry" />
        </mxCell>
        <mxCell id="73AyB8iF5DjKMRg6vyxh-126" value="" style="shape=tableRow;horizontal=0;startSize=0;swimlaneHead=0;swimlaneBody=0;strokeColor=inherit;top=0;left=0;bottom=0;right=0;collapsible=0;dropTarget=0;fillColor=none;points=[[0,0.5],[1,0.5]];portConstraint=eastwest;fontSize=16;" vertex="1" parent="73AyB8iF5DjKMRg6vyxh-125">
          <mxGeometry width="80" height="40" as="geometry" />
        </mxCell>
        <mxCell id="73AyB8iF5DjKMRg6vyxh-127" value="" style="shape=partialRectangle;html=1;whiteSpace=wrap;connectable=0;strokeColor=inherit;overflow=hidden;fillColor=none;top=0;left=0;bottom=0;right=0;pointerEvents=1;fontSize=16;" vertex="1" parent="73AyB8iF5DjKMRg6vyxh-126">
          <mxGeometry width="20" height="40" as="geometry">
            <mxRectangle width="20" height="40" as="alternateBounds" />
          </mxGeometry>
        </mxCell>
        <mxCell id="73AyB8iF5DjKMRg6vyxh-128" value="" style="shape=partialRectangle;html=1;whiteSpace=wrap;connectable=0;strokeColor=inherit;overflow=hidden;fillColor=none;top=0;left=0;bottom=0;right=0;pointerEvents=1;fontSize=16;" vertex="1" parent="73AyB8iF5DjKMRg6vyxh-126">
          <mxGeometry x="20" width="20" height="40" as="geometry">
            <mxRectangle width="20" height="40" as="alternateBounds" />
          </mxGeometry>
        </mxCell>
        <mxCell id="73AyB8iF5DjKMRg6vyxh-129" value="" style="shape=partialRectangle;html=1;whiteSpace=wrap;connectable=0;strokeColor=inherit;overflow=hidden;fillColor=none;top=0;left=0;bottom=0;right=0;pointerEvents=1;fontSize=16;" vertex="1" parent="73AyB8iF5DjKMRg6vyxh-126">
          <mxGeometry x="40" width="20" height="40" as="geometry">
            <mxRectangle width="20" height="40" as="alternateBounds" />
          </mxGeometry>
        </mxCell>
        <mxCell id="73AyB8iF5DjKMRg6vyxh-130" style="shape=partialRectangle;html=1;whiteSpace=wrap;connectable=0;strokeColor=inherit;overflow=hidden;fillColor=none;top=0;left=0;bottom=0;right=0;pointerEvents=1;fontSize=16;" vertex="1" parent="73AyB8iF5DjKMRg6vyxh-126">
          <mxGeometry x="60" width="20" height="40" as="geometry">
            <mxRectangle width="20" height="40" as="alternateBounds" />
          </mxGeometry>
        </mxCell>
        <mxCell id="73AyB8iF5DjKMRg6vyxh-131" value="" style="endArrow=classic;html=1;rounded=0;entryX=0.596;entryY=1.004;entryDx=0;entryDy=0;entryPerimeter=0;" edge="1" parent="1">
          <mxGeometry width="50" height="50" relative="1" as="geometry">
            <mxPoint x="352" y="781.76" as="sourcePoint" />
            <mxPoint x="369.68000000000006" y="721.9200000000001" as="targetPoint" />
          </mxGeometry>
        </mxCell>
        <mxCell id="73AyB8iF5DjKMRg6vyxh-132" value="" style="endArrow=classic;html=1;rounded=0;entryX=0.84;entryY=1.015;entryDx=0;entryDy=0;entryPerimeter=0;" edge="1" parent="1">
          <mxGeometry width="50" height="50" relative="1" as="geometry">
            <mxPoint x="372" y="781.76" as="sourcePoint" />
            <mxPoint x="389.20000000000005" y="722.3599999999999" as="targetPoint" />
          </mxGeometry>
        </mxCell>
        <mxCell id="73AyB8iF5DjKMRg6vyxh-133" value="" style="endArrow=classic;html=1;rounded=0;entryX=0.34;entryY=1.004;entryDx=0;entryDy=0;entryPerimeter=0;" edge="1" parent="1">
          <mxGeometry width="50" height="50" relative="1" as="geometry">
            <mxPoint x="392" y="781.76" as="sourcePoint" />
            <mxPoint x="349.20000000000005" y="721.9200000000001" as="targetPoint" />
          </mxGeometry>
        </mxCell>
        <mxCell id="73AyB8iF5DjKMRg6vyxh-134" value="&lt;div&gt;0&lt;/div&gt;" style="text;html=1;align=center;verticalAlign=middle;resizable=0;points=[];autosize=1;strokeColor=none;fillColor=none;" vertex="1" parent="1">
          <mxGeometry x="314" y="779.76" width="30" height="30" as="geometry" />
        </mxCell>
        <mxCell id="73AyB8iF5DjKMRg6vyxh-135" value="1" style="text;html=1;align=center;verticalAlign=middle;resizable=0;points=[];autosize=1;strokeColor=none;fillColor=none;" vertex="1" parent="1">
          <mxGeometry x="336" y="779.76" width="30" height="30" as="geometry" />
        </mxCell>
        <mxCell id="73AyB8iF5DjKMRg6vyxh-136" value="2" style="text;html=1;align=center;verticalAlign=middle;resizable=0;points=[];autosize=1;strokeColor=none;fillColor=none;" vertex="1" parent="1">
          <mxGeometry x="356" y="779.76" width="30" height="30" as="geometry" />
        </mxCell>
        <mxCell id="73AyB8iF5DjKMRg6vyxh-137" value="3" style="text;html=1;align=center;verticalAlign=middle;resizable=0;points=[];autosize=1;strokeColor=none;fillColor=none;" vertex="1" parent="1">
          <mxGeometry x="376" y="778.76" width="30" height="30" as="geometry" />
        </mxCell>
        <mxCell id="73AyB8iF5DjKMRg6vyxh-138" value="4" style="text;html=1;align=center;verticalAlign=middle;resizable=0;points=[];autosize=1;strokeColor=none;fillColor=none;" vertex="1" parent="1">
          <mxGeometry x="554" y="780" width="30" height="30" as="geometry" />
        </mxCell>
        <mxCell id="73AyB8iF5DjKMRg6vyxh-139" value="5" style="text;html=1;align=center;verticalAlign=middle;resizable=0;points=[];autosize=1;strokeColor=none;fillColor=none;" vertex="1" parent="1">
          <mxGeometry x="576" y="780" width="30" height="30" as="geometry" />
        </mxCell>
        <mxCell id="73AyB8iF5DjKMRg6vyxh-140" value="6" style="text;html=1;align=center;verticalAlign=middle;resizable=0;points=[];autosize=1;strokeColor=none;fillColor=none;" vertex="1" parent="1">
          <mxGeometry x="596" y="780" width="30" height="30" as="geometry" />
        </mxCell>
        <mxCell id="73AyB8iF5DjKMRg6vyxh-141" value="7" style="text;html=1;align=center;verticalAlign=middle;resizable=0;points=[];autosize=1;strokeColor=none;fillColor=none;" vertex="1" parent="1">
          <mxGeometry x="616" y="779" width="30" height="30" as="geometry" />
        </mxCell>
        <mxCell id="73AyB8iF5DjKMRg6vyxh-142" value="" style="endArrow=classic;html=1;rounded=0;entryX=0.108;entryY=0.956;entryDx=0;entryDy=0;entryPerimeter=0;" edge="1" parent="1">
          <mxGeometry width="50" height="50" relative="1" as="geometry">
            <mxPoint x="571" y="782" as="sourcePoint" />
            <mxPoint x="571" y="720" as="targetPoint" />
          </mxGeometry>
        </mxCell>
        <mxCell id="73AyB8iF5DjKMRg6vyxh-143" value="" style="endArrow=classic;html=1;rounded=0;entryX=0.596;entryY=1.004;entryDx=0;entryDy=0;entryPerimeter=0;" edge="1" parent="1">
          <mxGeometry width="50" height="50" relative="1" as="geometry">
            <mxPoint x="592" y="782" as="sourcePoint" />
            <mxPoint x="610" y="722" as="targetPoint" />
          </mxGeometry>
        </mxCell>
        <mxCell id="73AyB8iF5DjKMRg6vyxh-144" value="" style="endArrow=classic;html=1;rounded=0;entryX=0.34;entryY=1.004;entryDx=0;entryDy=0;entryPerimeter=0;" edge="1" parent="1">
          <mxGeometry width="50" height="50" relative="1" as="geometry">
            <mxPoint x="632" y="782" as="sourcePoint" />
            <mxPoint x="589" y="722" as="targetPoint" />
          </mxGeometry>
        </mxCell>
        <mxCell id="73AyB8iF5DjKMRg6vyxh-145" value="" style="endArrow=classic;html=1;rounded=0;entryX=0.84;entryY=1.015;entryDx=0;entryDy=0;entryPerimeter=0;" edge="1" parent="1">
          <mxGeometry width="50" height="50" relative="1" as="geometry">
            <mxPoint x="612" y="782" as="sourcePoint" />
            <mxPoint x="629" y="723" as="targetPoint" />
          </mxGeometry>
        </mxCell>
        <mxCell id="73AyB8iF5DjKMRg6vyxh-146" value="8" style="text;html=1;align=center;verticalAlign=middle;resizable=0;points=[];autosize=1;strokeColor=none;fillColor=none;" vertex="1" parent="1">
          <mxGeometry x="154" y="780" width="30" height="30" as="geometry" />
        </mxCell>
        <mxCell id="73AyB8iF5DjKMRg6vyxh-147" value="9" style="text;html=1;align=center;verticalAlign=middle;resizable=0;points=[];autosize=1;strokeColor=none;fillColor=none;" vertex="1" parent="1">
          <mxGeometry x="176" y="780" width="30" height="30" as="geometry" />
        </mxCell>
        <mxCell id="73AyB8iF5DjKMRg6vyxh-148" value="10" style="text;html=1;align=center;verticalAlign=middle;resizable=0;points=[];autosize=1;strokeColor=none;fillColor=none;" vertex="1" parent="1">
          <mxGeometry x="191" y="780" width="40" height="30" as="geometry" />
        </mxCell>
        <mxCell id="73AyB8iF5DjKMRg6vyxh-150" value="" style="endArrow=classic;html=1;rounded=0;entryX=0.108;entryY=0.956;entryDx=0;entryDy=0;entryPerimeter=0;" edge="1" parent="1">
          <mxGeometry width="50" height="50" relative="1" as="geometry">
            <mxPoint x="171" y="782" as="sourcePoint" />
            <mxPoint x="171" y="720" as="targetPoint" />
          </mxGeometry>
        </mxCell>
        <mxCell id="73AyB8iF5DjKMRg6vyxh-151" value="" style="endArrow=classic;html=1;rounded=0;entryX=0.596;entryY=1.004;entryDx=0;entryDy=0;entryPerimeter=0;" edge="1" parent="1">
          <mxGeometry width="50" height="50" relative="1" as="geometry">
            <mxPoint x="192" y="782" as="sourcePoint" />
            <mxPoint x="210" y="722" as="targetPoint" />
          </mxGeometry>
        </mxCell>
        <mxCell id="73AyB8iF5DjKMRg6vyxh-152" value="" style="endArrow=classic;html=1;rounded=0;entryX=0.84;entryY=1.015;entryDx=0;entryDy=0;entryPerimeter=0;" edge="1" parent="1">
          <mxGeometry width="50" height="50" relative="1" as="geometry">
            <mxPoint x="212" y="782" as="sourcePoint" />
            <mxPoint x="229" y="723" as="targetPoint" />
          </mxGeometry>
        </mxCell>
        <mxCell id="73AyB8iF5DjKMRg6vyxh-153" value="" style="endArrow=classic;html=1;rounded=0;entryX=0.34;entryY=1.004;entryDx=0;entryDy=0;entryPerimeter=0;" edge="1" parent="1">
          <mxGeometry width="50" height="50" relative="1" as="geometry">
            <mxPoint x="232" y="782" as="sourcePoint" />
            <mxPoint x="189" y="722" as="targetPoint" />
          </mxGeometry>
        </mxCell>
      </root>
    </mxGraphModel>
  </diagram>
</mxfile>
